<svg xmlns="http://www.w3.org/2000/svg" width="1387" height="756" viewBox="0 0 1387 756">
<g>
<path d="M 666.40 563.46 C665.08,564.78 660.73,565.00 636.38,565.00 C608.18,565.00 607.89,564.98 605.67,562.75 C603.76,560.84 602.14,553.94 594.75,516.50 C578.73,435.36 566.87,373.82 565.40,364.26 L 565.38 364.11 C565.04,361.91 564.80,360.40 565.40,359.35 C566.73,357.00 572.21,357.00 589.96,357.00 L 590.50 357.00 C591.46,357.00 592.39,357.00 593.28,357.00 C608.89,356.99 613.64,356.99 615.52,359.31 C616.45,360.46 616.67,362.19 617.16,364.76 C619.02,374.68 630.09,437.64 634.51,463.48 C637.04,478.31 639.27,490.60 639.45,490.78 C639.85,491.18 640.47,488.51 647.96,454.00 C660.19,397.71 668.98,359.72 670.10,358.38 C671.02,357.28 676.01,357.00 695.09,357.00 C717.88,357.00 718.98,357.09 720.00,358.99 C720.58,360.09 723.27,371.23 725.98,383.74 C728.68,396.26 732.74,414.83 735.01,425.00 C741.73,455.23 744.95,469.90 747.25,480.75 C748.44,486.39 749.69,491.00 750.02,491.00 C750.36,491.00 751.41,485.71 752.36,479.25 C756.69,449.76 773.00,361.68 774.58,359.25 C776.03,357.02 776.28,357.00 799.49,357.00 C821.85,357.00 822.98,357.09 823.99,358.99 C824.81,360.51 824.00,366.30 820.56,383.74 C818.09,396.26 813.79,418.42 811.00,433.00 C803.46,472.39 789.15,545.49 787.41,553.50 C786.43,557.96 786.18,560.70 784.71,562.38 C782.36,565.06 776.93,565.04 760.60,564.99 C758.49,564.98 756.21,564.97 753.73,564.97 C730.33,564.94 724.13,564.66 722.66,563.54 C720.67,562.03 720.41,561.13 716.08,541.00 C704.49,487.11 700.77,469.39 697.87,454.25 C696.06,444.76 694.22,437.00 693.79,437.00 C693.35,437.00 693.00,439.25 693.00,442.00 C693.00,446.92 684.85,487.47 674.91,531.94 C668.47,560.77 668.25,561.61 666.40,563.46 ZM 823.55 336.55 L 821.09 339.00 L 694.80 338.97 C597.09,338.94 568.14,338.66 566.91,337.72 C563.48,335.08 563.14,332.81 564.05,318.47 C566.43,280.64 578.79,252.08 603.44,227.45 C624.01,206.89 647.79,194.89 676.75,190.45 L 688.00 188.72 L 687.98 170.50 L 684.51 168.26 C679.65,165.11 677.00,159.43 677.00,152.19 C677.00,147.21 677.47,145.65 680.06,142.07 C686.75,132.84 699.38,131.34 707.37,138.81 C711.35,142.54 713.00,146.92 713.00,153.82 C713.00,160.55 710.57,165.15 705.25,168.50 L 702.08 170.50 L 702.04 179.75 C702.01,186.50 702.34,189.00 703.25,189.01 C707.43,189.03 724.82,192.28 732.18,194.42 C769.55,205.30 801.01,234.40 816.05,272.00 C822.16,287.29 825.98,307.18 825.99,323.80 C826.00,333.40 825.83,334.26 823.55,336.55 ZM 560.00 428.05 C560.00,429.90 559.23,430.00 545.25,429.93 C523.50,429.84 516.44,427.38 505.76,416.19 C495.56,405.49 492.99,397.74 492.27,375.48 L 492.25 374.75 C491.89,363.78 491.76,359.70 493.69,358.07 C494.88,357.07 496.85,356.99 500.03,356.81 L 505.50 356.50 L 505.80 350.30 L 506.09 344.11 L 493.80 337.80 C480.16,330.81 477.59,328.21 476.41,320.18 C475.93,316.90 474.72,314.38 472.36,311.75 C468.58,307.52 467.95,302.94 470.48,298.04 C475.75,287.85 490.45,288.74 493.99,299.47 C495.44,303.88 493.92,309.78 490.51,312.99 C487.08,316.21 487.18,320.30 490.75,322.78 C493.15,324.45 504.58,330.00 505.62,330.00 C505.83,330.00 506.00,318.21 506.00,303.80 L 506.00 277.60 L 502.89 274.38 C499.29,270.67 498.07,264.10 500.22,260.03 C502.31,256.08 507.72,253.00 512.57,253.00 C523.62,253.00 528.46,266.69 520.40,275.11 L 517.75 277.87 L 517.93 295.15 C518.02,304.66 518.26,312.59 518.45,312.78 C518.64,312.97 521.96,311.54 525.82,309.59 C535.73,304.60 538.63,299.77 533.65,296.51 C529.09,293.52 527.76,286.91 530.42,280.53 C532.17,276.35 536.46,274.00 542.37,274.00 C547.93,274.00 552.45,277.44 554.10,282.92 C555.06,286.15 554.93,287.37 553.16,291.36 C552.03,293.93 550.40,296.29 549.55,296.62 C548.70,296.95 548.00,298.18 547.99,299.36 C547.98,303.25 545.96,308.89 543.55,311.76 C542.24,313.31 535.95,317.20 529.56,320.41 L 517.95 326.23 L 518.50 356.50 L 524.74 356.80 C532.12,357.15 532.61,357.73 533.59,367.30 C534.48,375.99 536.67,378.20 544.97,378.80 L 550.91 379.23 L 551.94 384.37 C555.46,401.78 560.00,426.39 560.00,428.05 ZM 883.18 509.82 C876.46,512.95 863.23,513.86 856.50,511.64 C833.32,504.02 823.05,479.68 833.60,457.37 C836.65,450.94 844.34,443.66 851.78,440.19 C859.85,436.43 872.98,435.89 881.24,438.99 C890.02,442.28 897.29,448.75 901.21,456.77 C904.32,463.14 904.50,464.09 904.50,474.52 C904.50,484.93 904.32,485.91 901.25,492.14 C897.39,499.98 891.11,506.13 883.18,509.82 ZM 739.44 312.13 C741.12,312.56 745.91,312.76 750.07,312.57 C762.92,311.97 773.41,305.00 779.21,293.23 C782.19,287.17 782.50,285.70 782.50,277.52 C782.50,269.48 782.16,267.78 779.35,261.85 C775.48,253.69 769.61,247.65 762.15,244.15 C757.32,241.88 755.20,241.51 747.50,241.54 C739.67,241.58 737.81,241.94 733.16,244.35 C725.65,248.25 719.83,253.96 715.95,261.25 C711.41,269.76 710.69,280.53 714.06,289.47 C717.76,299.30 729.13,309.44 739.44,312.13 ZM 634.38 312.11 C636.10,312.55 640.73,312.78 644.67,312.61 C654.26,312.21 661.07,308.86 668.41,300.92 C672.90,296.07 674.38,293.57 676.12,287.84 C680.01,275.04 677.12,262.82 667.75,252.46 C658.27,241.98 643.49,238.20 630.72,243.00 C623.09,245.86 614.01,254.24 610.30,261.82 C607.87,266.80 607.53,268.66 607.51,277.00 C607.50,285.15 607.87,287.28 610.09,292.00 C614.59,301.57 624.13,309.47 634.38,312.11 ZM 889.68 412.10 C890.05,421.88 889.92,428.93 889.38,429.27 C888.87,429.58 887.62,429.37 886.59,428.79 C879.44,424.79 866.13,424.01 854.96,426.94 C850.89,428.01 847.39,428.72 847.19,428.52 C846.99,428.32 846.61,425.31 846.35,421.83 C846.09,418.35 845.67,414.48 845.41,413.22 C844.78,410.10 841.47,407.00 838.75,406.98 C833.65,406.95 833.62,406.51 837.38,386.90 C839.33,376.78 841.46,365.86 842.12,362.63 L 843.32 356.76 L 850.47 357.22 C867.15,358.29 880.58,369.82 886.70,388.35 C888.65,394.23 889.18,398.46 889.68,412.10 ZM 864.34 495.96 C871.55,497.49 879.26,493.62 883.28,486.46 C885.75,482.05 886.03,480.65 885.78,473.83 C885.53,467.17 885.09,465.59 882.47,461.83 C878.28,455.83 874.02,453.81 866.43,454.23 C859.69,454.61 856.42,456.53 852.05,462.67 C850.05,465.49 849.46,467.68 849.18,473.36 C848.87,479.67 849.16,481.14 851.70,485.96 C854.68,491.65 858.59,494.74 864.34,495.96 ZM 753.75 293.46 C749.00,295.44 746.42,295.38 741.49,293.14 C729.24,287.57 726.58,273.70 735.99,264.51 C739.76,260.83 740.49,260.54 746.77,260.20 C752.53,259.88 754.00,260.16 757.00,262.17 C761.19,264.98 765.01,272.06 764.98,276.96 C764.95,281.08 762.12,287.75 759.35,290.21 C758.29,291.15 755.77,292.62 753.75,293.46 ZM 650.09 292.67 C644.25,295.76 640.57,295.59 634.27,291.98 C628.63,288.75 626.43,285.55 625.40,279.09 C622.97,263.93 642.24,253.25 653.20,263.67 C657.53,267.79 659.00,271.22 658.98,277.20 C658.96,284.28 655.90,289.61 650.09,292.67 Z" fill="rgb(23,124,119)"/>
<path d="M 695.68 443.67 C694.61,439.59 694.11,440.20 693.51,443.50 C692.58,448.68 690.05,461.02 686.94,475.81 C690.65,457.55 693.00,444.64 693.00,442.00 C693.00,439.25 693.35,437.00 693.79,437.00 C694.04,437.00 694.77,439.62 695.68,443.67 ZM 719.42 556.08 C718.53,552.77 717.48,548.09 716.12,541.50 C714.98,536.00 711.38,519.12 708.12,504.00 C706.51,496.52 704.69,487.89 703.06,479.98 C705.84,493.28 709.81,511.85 716.08,541.00 C717.62,548.17 718.64,552.90 719.42,556.08 ZM 672.44 542.97 C670.80,550.31 669.54,555.78 668.91,558.21 C668.72,558.92 668.46,559.68 668.16,560.40 C669.00,557.97 670.12,553.27 672.44,542.97 ZM 725.04 564.26 C723.79,564.08 723.08,563.86 722.73,563.59 C723.13,563.86 723.84,564.08 725.04,564.26 Z" fill="rgb(138,188,184)"/>
<path d="M 0.00 378.00 L 0.00 0.00 L 693.50 0.00 L 1387.00 0.00 L 1387.00 378.00 L 1387.00 756.00 L 693.50 756.00 L 0.00 756.00 L 0.00 378.00 ZM 666.40 563.46 C667.25,562.61 668.38,560.24 668.91,558.21 C672.02,546.25 690.58,459.72 693.51,443.50 C694.53,437.88 695.27,440.07 699.05,460.00 C700.78,469.08 704.86,488.88 708.12,504.00 C711.38,519.12 714.98,536.00 716.12,541.50 C719.41,557.40 720.83,562.15 722.73,563.59 C724.12,564.65 730.83,564.94 753.73,564.97 C787.56,565.01 784.68,565.98 787.41,553.50 C789.15,545.49 803.46,472.39 811.00,433.00 C813.79,418.42 818.09,396.26 820.56,383.74 C824.00,366.30 824.81,360.51 823.99,358.99 C822.98,357.09 821.85,357.00 799.49,357.00 C776.28,357.00 776.03,357.02 774.58,359.25 C773.00,361.68 756.69,449.76 752.36,479.25 C751.41,485.71 750.36,491.00 750.02,491.00 C749.69,491.00 748.44,486.39 747.25,480.75 C744.95,469.90 741.73,455.23 735.01,425.00 C732.74,414.83 728.68,396.26 725.98,383.74 C723.27,371.23 720.58,360.09 720.00,358.99 C718.98,357.09 717.88,357.00 695.09,357.00 C676.01,357.00 671.02,357.28 670.10,358.38 C668.98,359.72 660.19,397.71 647.96,454.00 C640.47,488.51 639.85,491.18 639.45,490.78 C639.27,490.60 637.04,478.31 634.51,463.48 C630.09,437.64 619.02,374.68 617.16,364.76 C615.64,356.69 616.69,357.00 590.50,357.00 C564.10,357.00 564.28,356.95 565.40,364.26 C566.87,373.82 578.73,435.36 594.75,516.50 C602.14,553.94 603.76,560.84 605.67,562.75 C607.89,564.98 608.18,565.00 636.38,565.00 C660.73,565.00 665.08,564.78 666.40,563.46 ZM 883.18 509.82 C891.11,506.13 897.39,499.98 901.25,492.14 C904.32,485.91 904.50,484.93 904.50,474.52 C904.50,464.09 904.32,463.14 901.21,456.77 C897.29,448.75 890.02,442.28 881.24,438.99 C872.98,435.89 859.85,436.43 851.78,440.19 C844.34,443.66 836.65,450.94 833.60,457.37 C823.05,479.68 833.32,504.02 856.50,511.64 C863.23,513.86 876.46,512.95 883.18,509.82 ZM 560.00 428.05 C560.00,426.39 555.46,401.78 551.94,384.37 L 550.91 379.23 L 544.97 378.80 C536.67,378.20 534.48,375.99 533.59,367.30 C532.61,357.73 532.12,357.15 524.74,356.80 L 518.50 356.50 L 518.22 341.36 L 517.95 326.23 L 529.56 320.41 C535.95,317.20 542.24,313.31 543.55,311.76 C545.96,308.89 547.98,303.25 547.99,299.36 C548.00,298.18 548.70,296.95 549.55,296.62 C550.40,296.29 552.03,293.93 553.16,291.36 C554.93,287.37 555.06,286.15 554.10,282.92 C552.45,277.44 547.93,274.00 542.37,274.00 C536.46,274.00 532.17,276.35 530.42,280.53 C527.76,286.91 529.09,293.52 533.65,296.51 C538.63,299.77 535.73,304.60 525.82,309.59 C521.96,311.54 518.64,312.97 518.45,312.78 C518.26,312.59 518.02,304.66 517.93,295.15 L 517.75 277.87 L 520.40 275.11 C528.46,266.69 523.62,253.00 512.57,253.00 C507.72,253.00 502.31,256.08 500.22,260.03 C498.07,264.10 499.29,270.67 502.89,274.38 L 506.00 277.60 L 506.00 303.80 C506.00,318.21 505.83,330.00 505.62,330.00 C504.58,330.00 493.15,324.45 490.75,322.78 C487.18,320.30 487.08,316.21 490.51,312.99 C493.92,309.78 495.44,303.88 493.99,299.47 C490.45,288.74 475.75,287.85 470.48,298.04 C467.95,302.94 468.58,307.52 472.36,311.75 C474.72,314.38 475.93,316.90 476.41,320.18 C477.59,328.21 480.16,330.81 493.80,337.80 L 506.09 344.11 L 505.80 350.30 L 505.50 356.50 L 500.03 356.81 C491.57,357.29 491.67,357.03 492.27,375.48 C492.99,397.74 495.56,405.49 505.76,416.19 C516.44,427.38 523.50,429.84 545.25,429.93 C559.23,430.00 560.00,429.90 560.00,428.05 ZM 889.68 412.10 C889.18,398.46 888.65,394.23 886.70,388.35 C880.58,369.82 867.15,358.29 850.47,357.22 L 843.32 356.76 L 842.12 362.63 C841.46,365.86 839.33,376.78 837.38,386.90 C833.62,406.51 833.65,406.95 838.75,406.98 C841.47,407.00 844.78,410.10 845.41,413.22 C845.67,414.48 846.09,418.35 846.35,421.83 C846.61,425.31 846.99,428.32 847.19,428.52 C847.39,428.72 850.89,428.01 854.96,426.94 C866.13,424.01 879.44,424.79 886.59,428.79 C887.62,429.37 888.87,429.58 889.38,429.27 C889.92,428.93 890.05,421.88 889.68,412.10 ZM 823.55 336.55 C825.83,334.26 826.00,333.40 825.99,323.80 C825.98,307.18 822.16,287.29 816.05,272.00 C801.01,234.40 769.55,205.30 732.18,194.42 C724.82,192.28 707.43,189.03 703.25,189.01 C702.34,189.00 702.01,186.50 702.04,179.75 L 702.08 170.50 L 705.25 168.50 C710.57,165.15 713.00,160.55 713.00,153.82 C713.00,146.92 711.35,142.54 707.37,138.81 C699.38,131.34 686.75,132.84 680.06,142.07 C677.47,145.65 677.00,147.21 677.00,152.19 C677.00,159.43 679.65,165.11 684.51,168.26 L 687.98 170.50 L 687.99 179.61 L 688.00 188.72 L 676.75 190.45 C647.79,194.89 624.01,206.89 603.44,227.45 C578.79,252.08 566.43,280.64 564.05,318.47 C563.14,332.81 563.48,335.08 566.91,337.72 C568.14,338.66 597.09,338.94 694.80,338.97 L 821.09 339.00 L 823.55 336.55 ZM 864.34 495.96 C858.59,494.74 854.68,491.65 851.70,485.96 C849.16,481.14 848.87,479.67 849.18,473.36 C849.46,467.68 850.05,465.49 852.05,462.67 C856.42,456.53 859.69,454.61 866.43,454.23 C874.02,453.81 878.28,455.83 882.47,461.83 C885.09,465.59 885.53,467.17 885.78,473.83 C886.03,480.65 885.75,482.05 883.28,486.46 C879.26,493.62 871.55,497.49 864.34,495.96 ZM 634.38 312.11 C624.13,309.47 614.59,301.57 610.09,292.00 C607.87,287.28 607.50,285.15 607.51,277.00 C607.53,268.66 607.87,266.80 610.30,261.82 C614.01,254.24 623.09,245.86 630.72,243.00 C643.49,238.20 658.27,241.98 667.75,252.46 C677.12,262.82 680.01,275.04 676.12,287.84 C674.38,293.57 672.90,296.07 668.41,300.92 C661.07,308.86 654.26,312.21 644.67,312.61 C640.73,312.78 636.10,312.55 634.38,312.11 ZM 650.09 292.67 C655.90,289.61 658.96,284.28 658.98,277.20 C659.00,271.22 657.53,267.79 653.20,263.67 C642.24,253.25 622.97,263.93 625.40,279.09 C626.43,285.55 628.63,288.75 634.27,291.98 C640.57,295.59 644.25,295.76 650.09,292.67 ZM 739.44 312.13 C729.13,309.44 717.76,299.30 714.06,289.47 C710.69,280.53 711.41,269.76 715.95,261.25 C719.83,253.96 725.65,248.25 733.16,244.35 C737.81,241.94 739.67,241.58 747.50,241.54 C755.20,241.51 757.32,241.88 762.15,244.15 C769.61,247.65 775.48,253.69 779.35,261.85 C782.16,267.78 782.50,269.48 782.50,277.52 C782.50,285.70 782.19,287.17 779.21,293.23 C773.41,305.00 762.92,311.97 750.07,312.57 C745.91,312.76 741.12,312.56 739.44,312.13 ZM 753.75 293.46 C755.77,292.62 758.29,291.15 759.35,290.21 C762.12,287.75 764.95,281.08 764.98,276.96 C765.01,272.06 761.19,264.98 757.00,262.17 C754.00,260.16 752.53,259.88 746.77,260.20 C740.49,260.54 739.76,260.83 735.99,264.51 C726.58,273.70 729.24,287.57 741.49,293.14 C746.42,295.38 749.00,295.44 753.75,293.46 Z" fill="rgb(254,254,254)"/>
</g>
</svg>